<svg width="243" height="52" viewBox="0 0 243 52" fill="none" xmlns="http://www.w3.org/2000/svg">
<g opacity="0.4">
<path d="M0 37.0933C0 37.0933 38.0675 34.2594 62.0574 29.8133C87.5093 25.0963 100.331 14.0391 126.207 13.1733C144.3 12.5679 154.139 19.4747 172.227 18.72C198.704 17.6153 214.428 13.1003 237.422 0" transform="translate(2.44043 11.7866)" stroke="#57AB27" stroke-width="2"/>
<ellipse cx="3.13773" cy="3.12" rx="3.13773" ry="3.12" transform="translate(0 45.7598)" fill="#57AB27"/>
<ellipse cx="1.04591" cy="1.04" rx="1.04591" ry="1.04" transform="translate(2.0918 47.8403)" fill="white"/>
<ellipse cx="3.13773" cy="3.12" rx="3.13773" ry="3.12" transform="translate(61.3601 38.1333)" fill="#57AB27"/>
<ellipse cx="3.13773" cy="3.12" rx="3.13773" ry="3.12" transform="translate(125.509 22.187)" fill="#57AB27"/>
<ellipse cx="3.13773" cy="3.12" rx="3.13773" ry="3.12" transform="translate(171.529 27.04)" fill="#57AB27"/>
<ellipse cx="3.13773" cy="3.12" rx="3.13773" ry="3.12" transform="translate(236.725 9.01318)" fill="#57AB27"/>
<ellipse cx="1.04591" cy="1.04" rx="1.04591" ry="1.04" transform="translate(63.4519 40.2134)" fill="white"/>
<ellipse cx="1.04591" cy="1.04" rx="1.04591" ry="1.04" transform="translate(127.601 24.2666)" fill="white"/>
<ellipse cx="1.04591" cy="1.04" rx="1.04591" ry="1.04" transform="translate(173.621 29.1196)" fill="white"/>
<ellipse cx="1.04591" cy="1.04" rx="1.04591" ry="1.04" transform="translate(238.816 11.0933)" fill="white"/>
<path opacity="0.4" fill-rule="evenodd" clip-rule="evenodd" d="M1.35581 1.34815V0H2.13056V1.34815H3.48637V2.11852H2.13056V3.46667H1.35581V2.11852H0V1.34815H1.35581Z" transform="translate(1.39453 36.7466)" fill="#57AB27"/>
<path opacity="0.4" fill-rule="evenodd" clip-rule="evenodd" d="M1.35581 1.34815V0H2.13056V1.34815H3.48637V2.11852H2.13056V3.46667H1.35581V2.11852H0V1.34815H1.35581Z" transform="translate(62.7546 29.1196)" fill="#57AB27"/>
<path opacity="0.4" fill-rule="evenodd" clip-rule="evenodd" d="M1.35581 1.34815V0H2.13056V1.34815H3.48637V2.11852H2.13056V3.46667H1.35581V2.11852H0V1.34815H1.35581Z" transform="translate(126.904 13.1733)" fill="#57AB27"/>
<path opacity="0.4" fill-rule="evenodd" clip-rule="evenodd" d="M1.35581 1.34815V0H2.13056V1.34815H3.48637V2.11852H2.13056V3.46667H1.35581V2.11852H0V1.34815H1.35581Z" transform="translate(172.924 18.0269)" fill="#57AB27"/>
<path opacity="0.4" fill-rule="evenodd" clip-rule="evenodd" d="M1.35581 1.34815V0H2.13056V1.34815H3.48637V2.11852H2.13056V3.46667H1.35581V2.11852H0V1.34815H1.35581Z" transform="translate(238.119)" fill="#57AB27"/>
</g>
</svg>
