<svg width="243" height="52" fill="none" xmlns="http://www.w3.org/2000/svg"><g opacity=".4"><path d="M2.44 48.88s38.068-2.834 62.058-7.28c25.452-4.717 38.273-15.774 64.15-16.64 18.092-.605 27.931 6.301 46.02 5.547 26.476-1.105 42.2-5.62 65.194-18.72" stroke="#57AB27" stroke-width="2"/><ellipse cx="3.138" cy="3.12" rx="3.138" ry="3.12" transform="translate(0 45.76)" fill="#57AB27"/><ellipse cx="1.046" cy="1.04" rx="1.046" ry="1.04" transform="translate(2.092 47.84)" fill="#fff"/><ellipse cx="3.138" cy="3.12" rx="3.138" ry="3.12" transform="translate(61.36 38.133)" fill="#57AB27"/><ellipse cx="3.138" cy="3.12" rx="3.138" ry="3.12" transform="translate(125.509 22.187)" fill="#57AB27"/><ellipse cx="3.138" cy="3.12" rx="3.138" ry="3.12" transform="translate(171.529 27.04)" fill="#57AB27"/><ellipse cx="3.138" cy="3.12" rx="3.138" ry="3.12" transform="translate(236.725 9.013)" fill="#57AB27"/><ellipse cx="1.046" cy="1.04" rx="1.046" ry="1.04" transform="translate(63.452 40.213)" fill="#fff"/><ellipse cx="1.046" cy="1.04" rx="1.046" ry="1.04" transform="translate(127.601 24.267)" fill="#fff"/><ellipse cx="1.046" cy="1.04" rx="1.046" ry="1.04" transform="translate(173.621 29.12)" fill="#fff"/><ellipse cx="1.046" cy="1.04" rx="1.046" ry="1.04" transform="translate(238.816 11.093)" fill="#fff"/><path opacity=".4" fill-rule="evenodd" clip-rule="evenodd" d="M2.75 38.095v-1.348h.775v1.348h1.356v.77H3.525v1.348H2.75v-1.348H1.395v-.77H2.75zm61.36-7.627V29.12h.775v1.348h1.356v.77h-1.356v1.348h-.775v-1.348h-1.355v-.77h1.355zm64.15-15.947v-1.348h.775v1.348h1.355v.77h-1.355v1.349h-.775v-1.348h-1.356v-.77h1.356zm46.02 4.854v-1.348h.775v1.348h1.355v.77h-1.355v1.349h-.775v-1.349h-1.356v-.77h1.356zm65.195-18.027V0h.775v1.348h1.355v.77h-1.355v1.349h-.775V2.119h-1.356v-.77h1.356z" fill="#57AB27"/></g></svg>