<svg width="697" height="150" fill="none" xmlns="http://www.w3.org/2000/svg"><g opacity=".4"><path d="M7 141s109.19-8.175 178-21c73.004-13.607 109.781-45.502 184-48 51.897-1.746 80.119 18.177 132 16 75.945-3.187 121.047-16.21 187-54" stroke="#57AB27" stroke-width="2"/><circle cx="9" cy="9" r="9" transform="translate(0 132)" fill="#57AB27"/><circle cx="3" cy="3" r="3" transform="translate(6 138)" fill="#fff"/><circle cx="9" cy="9" r="9" transform="translate(176 110)" fill="#57AB27"/><circle cx="9" cy="9" r="9" transform="translate(360 64)" fill="#57AB27"/><circle cx="9" cy="9" r="9" transform="translate(492 78)" fill="#57AB27"/><circle cx="9" cy="9" r="9" transform="translate(679 26)" fill="#57AB27"/><circle cx="3" cy="3" r="3" transform="translate(182 116)" fill="#fff"/><circle cx="3" cy="3" r="3" transform="translate(366 70)" fill="#fff"/><circle cx="3" cy="3" r="3" transform="translate(498 84)" fill="#fff"/><circle cx="3" cy="3" r="3" transform="translate(685 32)" fill="#fff"/><path opacity=".4" fill-rule="evenodd" clip-rule="evenodd" d="M7.889 109.889V106h2.222v3.889H14v2.222h-3.889V116H7.89v-3.889H4v-2.222h3.889zm176-22V84h2.222v3.889H190v2.222h-3.889V94h-2.222v-3.889H180V87.89h3.889zm184-46V38h2.222v3.889H374v2.222h-3.889V48h-2.222v-3.889H364V41.89h3.889zm132 14V52h2.222v3.889H506v2.222h-3.889V62h-2.222v-3.889H496V55.89h3.889zm187-52V0h2.222v3.889H693V6.11h-3.889V10h-2.222V6.111H683V3.89h3.889z" fill="#57AB27"/></g></svg>