<svg width="84" height="68" fill="none" xmlns="http://www.w3.org/2000/svg"><path d="M16.366 80.74c-4.112-7.422-1.314-19.062 7.194-27.77 9.664-9.885 23.024-12.241 29.845-5.263a.26.26 0 0 0 .026.028c-1.366 4.065-5.714 12.71-18.745 17.386-11.938 4.284-16.542 11.098-18.32 15.619zM49.39 59.11c-3.117 3.192-7.547 6.324-13.821 8.577-12.734 4.568-16.292 12.05-17.285 15.672.048.05.087.1.132.146 6.82 6.98 20.182 4.622 29.843-5.263 8.597-8.797 11.363-20.586 7.065-27.996-1.035 2.468-2.834 5.692-5.934 8.864zM23.037 26.96c13.757 1.233 21.199-4.814 24.078-7.94l-.012-.038C43.698 9.747 30.575 6.263 17.79 11.199 6.533 15.546-.704 24.972.054 33.469c3.44-3.37 10.38-7.638 22.983-6.51zm7.084 17.678c11.377-4.391 18.64-13.969 17.708-22.533-1.936 1.813-4.874 3.994-8.976 5.578-4.124 1.592-9.422 2.58-16.046 1.986C9.365 28.462 3.11 33.78.745 36.664c.024.065.04.128.063.188 3.405 9.235 16.529 12.721 29.313 7.785zm39.813-19.255c8.254-11.33 7.134-20.987 6.045-25.136-.012-.002-.025-.007-.036-.01-9.468-1.885-19.26 7.711-21.871 21.433-2.3 12.088 1.739 23.339 9.203 27.142-.996-4.766-.899-13.048 6.659-23.429zm8.987-24.137c.491 2.64.76 6.342-.077 10.745-.842 4.428-2.805 9.56-6.777 15.016-8.064 11.07-6.928 19.308-5.771 22.882.066.014.127.03.189.045 9.468 1.886 19.259-7.71 21.87-21.433C90.68 16.29 86.53 4.93 78.92 1.245z" fill="#F5F5F5"/></svg>