<svg width="14" height="14" fill="none" xmlns="http://www.w3.org/2000/svg"><path d="M10.136 0H3.863A3.868 3.868 0 0 0 0 3.863v6.273A3.868 3.868 0 0 0 3.863 14h6.273A3.868 3.868 0 0 0 14 10.136V3.864A3.868 3.868 0 0 0 10.136 0zm2.622 10.136a2.624 2.624 0 0 1-2.621 2.622H3.862a2.624 2.624 0 0 1-2.62-2.621V3.862a2.624 2.624 0 0 1 2.62-2.62h6.273a2.624 2.624 0 0 1 2.622 2.62v6.273z" fill="#57AB27"/><path d="M7 3.393A3.612 3.612 0 0 0 3.392 7 3.611 3.611 0 0 0 7 10.607 3.611 3.611 0 0 0 10.607 7 3.612 3.612 0 0 0 7 3.393zm0 5.972A2.368 2.368 0 0 1 4.634 7 2.368 2.368 0 0 1 7 4.635 2.368 2.368 0 0 1 9.365 7 2.368 2.368 0 0 1 7 9.365zm3.759-7.026a.914.914 0 0 0-.911.91c0 .24.098.475.267.645a.918.918 0 0 0 .644.267.92.92 0 0 0 .644-.267.915.915 0 0 0 0-1.289.915.915 0 0 0-.644-.266z" fill="#57AB27"/></svg>