<svg width="20" height="20" fill="none" xmlns="http://www.w3.org/2000/svg"><path d="M19.552 15.819l-3.09-3.096c-.614-.614-1.633-.596-2.27.043l-1.556 1.56-.307-.172c-.982-.546-2.327-1.294-3.743-2.713-1.42-1.423-2.166-2.773-2.712-3.758-.058-.105-.113-.205-.168-.301l1.045-1.045.513-.515c.638-.64.655-1.66.042-2.276L4.216.449c-.613-.615-1.632-.596-2.27.043l-.87.878.024.023a5.048 5.048 0 0 0-.718 1.268 5.267 5.267 0 0 0-.319 1.287c-.408 3.388 1.137 6.485 5.33 10.688 5.797 5.809 10.468 5.37 10.669 5.349.439-.053.86-.158 1.287-.324.46-.18.888-.424 1.26-.716l.02.017.881-.866c.637-.639.655-1.66.042-2.277z" fill="#57AB27"/></svg>