<svg width="8" height="14" viewBox="0 0 8 14" fill="none" xmlns="http://www.w3.org/2000/svg">
<path d="M7.69874 0.00291293L5.77991 0C3.62416 0 2.23102 1.35233 2.23102 3.44542V5.03399H0.301718C0.135004 5.03399 -5.16759e-08 5.16187 -5.16759e-08 5.3196V7.62126C-5.16759e-08 7.77899 0.135158 7.90672 0.301718 7.90672H2.23102V13.7145C2.23102 13.8723 2.36603 14 2.53274 14H5.04993C5.21665 14 5.35165 13.8721 5.35165 13.7145V7.90672H7.60746C7.77417 7.90672 7.90918 7.77899 7.90918 7.62126L7.9101 5.3196C7.9101 5.24386 7.87823 5.17133 7.82174 5.11773C7.76524 5.06414 7.68828 5.03399 7.60823 5.03399H5.35165V3.68734C5.35165 3.04008 5.51467 2.71151 6.40582 2.71151L7.69844 2.71107C7.865 2.71107 8 2.58319 8 2.4256V0.288381C8 0.130936 7.86515 0.00320423 7.69874 0.00291293Z" fill="#57AB27"/>
</svg>
