<svg width="20" height="20" fill="none" xmlns="http://www.w3.org/2000/svg"><path d="M16.074 20c-.832 0-1.837-.209-2.942-.626-2.423-.913-5.06-2.719-7.423-5.082C3.344 11.926 1.539 9.29.624 6.866c-.83-2.202-.832-4.01-.004-4.838.119-.119.24-.247.365-.379C1.74.855 2.595-.039 3.725.001c.78.033 1.536.517 2.31 1.48 2.285 2.842 1.255 3.856.062 5.03l-.21.209c-.196.195-.564 1.098 2.865 4.528 1.12 1.119 2.074 1.938 2.837 2.434.48.312 1.34.784 1.692.432l.211-.214c1.174-1.19 2.187-2.217 5.028.067.962.773 1.446 1.528 1.478 2.309.047 1.13-.854 1.986-1.65 2.741-.13.125-.258.246-.377.365-.411.412-1.069.618-1.897.618zM3.644.673c-.803 0-1.529.764-2.171 1.44-.13.136-.255.268-.378.39-.617.617-.554 2.236.16 4.127.88 2.336 2.631 4.888 4.93 7.186 2.298 2.298 4.849 4.049 7.185 4.93 1.891.714 3.51.774 4.126.159.123-.123.255-.248.39-.377.691-.656 1.475-1.4 1.44-2.226-.023-.567-.436-1.177-1.227-1.813-2.367-1.904-3.029-1.232-4.127-.118l-.215.217c-.525.526-1.377.41-2.534-.343-.803-.522-1.794-1.37-2.946-2.523-2.846-2.846-3.756-4.587-2.866-5.48l.215-.212c1.116-1.098 1.79-1.76-.115-4.129C4.874 1.111 4.264.698 3.697.673h-.052z" fill="#57AB27"/></svg>