<svg width="109" height="40" viewBox="0 0 109 40" fill="none" xmlns="http://www.w3.org/2000/svg">
<path d="M2.31524 9.68128H1.8655e-06L0.0229195 -4.71587e-07H2.31524V9.68128Z" transform="translate(88.5376 6.49072)" fill="#1EE62C"/>
<path d="M20.6768 40H5.68496V31.4236H-4.66374e-07V23.4421H2.33817V29.0593H8.02313V37.6357H18.3386V6.49024H34.6676V1.17897e-07H42.5149V26.2778H57.2622V23.4421H59.6004V28.6421H40.1691V2.3643H37.0057V8.86228H20.6768V40Z" transform="translate(25.6892)" fill="#1EE62C"/>
<path d="M5.82968e-08 0H2.31525V3.6469L2.85012 2.68109L4.89029 0H7.58759L4.16439 4.22639L7.67928 9.2486H4.99727L2.5674 5.80259L2.30761 6.08074V9.2486H5.82968e-08V0Z" transform="translate(0 14.1846)" fill="black"/>
<path d="M6.08994 7.07746H3.17869L2.48335 9.33359H4.66374e-07L3.1252 -4.71587e-07H6.15871L9.31447 9.34132H6.81584L6.08994 7.07746ZM4.59993 1.68437L4.36305 2.98242L3.78997 4.97585H5.47865L4.92849 2.98242L4.69162 1.68437H4.59993Z" transform="translate(9.27612 14.0996)" fill="black"/>
<path d="M4.86737 2.05524H2.35345V9.25632H9.32749e-07V0H7.19789V9.2486H4.85972V2.05524H4.86737Z" transform="translate(20.8215 14.1846)" fill="black"/>
<path d="M6.34209 2.2175L5.63911 4.21093L3.28566 9.26405H0V0.00772648H2.31525V4.97585L1.98668 7.24744L2.05545 7.27062L2.88069 5.06084L5.31055 -4.71587e-07H8.39755V9.2486H6.05937V4.25729L6.44143 2.23295L6.34209 2.2175Z" transform="translate(31.1982 14.1772)" fill="black"/>
<path d="M6.57133 0V2.03206H4.43946V9.2486H2.1013V2.03206H9.32749e-07V0H6.57133Z" transform="translate(41.9114 14.1846)" fill="black"/>
<path d="M6.08994 7.07746H3.17869L2.48335 9.33359H-1.8655e-06L3.1252 -4.71587e-07H6.15871L9.32211 9.34132H6.82348L6.08994 7.07746ZM4.59993 1.68437L4.36306 2.98242L3.78997 4.97585H5.47865L4.92849 2.98242L4.69162 1.68437H4.59993Z" transform="translate(49.3154 14.0996)" fill="black"/>
<path d="M1.76509 0H7.91616V9.2486H5.57798V2.00889H3.95808L3.82818 4.89086C3.80526 6.47479 3.40792 8.77728 0.886366 9.42631L-1.8655e-06 7.84238C1.43652 7.10064 1.39832 6.29708 1.51294 4.84451L1.76509 0Z" transform="translate(60.2805 14.1846)" fill="black"/>
<path d="M9.47493 4.79815C9.47493 7.7033 7.32015 9.58084 4.74511 9.58084C2.15479 9.58084 9.32749e-07 7.71876 9.32749e-07 4.79815C9.32749e-07 1.89299 2.15479 0 4.74511 0C7.32015 0 9.47493 1.93162 9.47493 4.79815ZM4.74511 7.44833C5.92184 7.44833 7.12149 6.78385 7.12149 4.79042C7.12149 2.87425 5.90655 2.12478 4.72982 2.12478C3.49197 2.12478 2.35345 3.01333 2.35345 4.79042C2.35345 6.59069 3.56839 7.44833 4.74511 7.44833Z" transform="translate(70.7947 14.0308)" fill="black"/>
<path d="M5.60091 1.98571H2.32289V9.25632H1.8655e-06V0H5.60855V1.98571H5.60091Z" transform="translate(82.9592 14.1846)" fill="black"/>
<path d="M6.33445 2.2175L5.63148 4.21093L3.27802 9.25633H-3.73099e-06V0.00772648H2.31525V4.97585L1.98668 7.24744L2.05545 7.27062L2.88069 5.06085L5.31054 -4.71587e-07H8.39754V9.2486H6.05937V4.25729L6.44143 2.23295L6.33445 2.2175Z" transform="translate(90.8525 14.1772)" fill="black"/>
<path d="M2.20827 5.64806C0.794672 5.29264 0.328563 4.14139 0.31328 3.07514C0.290357 1.4603 1.6199 4.71587e-07 3.82818 4.71587e-07H7.22845V9.2486H4.90557V6.01893H4.4089L2.53684 9.24088H-1.8655e-06L2.20827 5.64806ZM4.89029 4.11822V1.99343H3.82054C3.03351 1.99343 2.6591 2.53429 2.6591 3.06741C2.6591 3.59281 3.04115 4.12594 3.78233 4.12594H4.89029V4.11822Z" transform="translate(101.771 14.1934)" fill="black"/>
</svg>
