<svg width="9" height="14" fill="none" xmlns="http://www.w3.org/2000/svg"><path d="M3.046 6.154H4.42c.58 0 1.01-.15 1.289-.452.28-.307.419-.731.419-1.272 0-.491-.14-.885-.419-1.18-.279-.296-.684-.444-1.214-.444-.457 0-.842.134-1.155.402-.312.267-.469.619-.469 1.054H.502l-.017-.05C.45 3.258.817 2.471 1.58 1.852c.765-.62 1.714-.93 2.846-.93 1.262 0 2.266.302 3.014.904.753.603 1.13 1.462 1.13 2.579 0 .53-.168 1.035-.502 1.515-.335.474-.796.845-1.382 1.113.676.24 1.189.608 1.54 1.105.358.496.536 1.074.536 1.732 0 1.117-.407 1.995-1.222 2.637-.809.636-1.847.954-3.114.954-1.132 0-2.106-.298-2.921-.895-.81-.603-1.2-1.451-1.172-2.545l.017-.05h2.37c0 .469.167.856.502 1.163.335.302.759.452 1.272.452.564 0 1.008-.156 1.331-.468.33-.313.494-.737.494-1.273 0-.641-.162-1.11-.485-1.406-.318-.301-.79-.452-1.415-.452H3.046V6.154z" fill="#fff"/></svg>