<svg width="10" height="13" viewBox="0 0 10 13" fill="none" xmlns="http://www.w3.org/2000/svg">
<path d="M0.194028 12.3633V10.7645L4.13655 6.53739C4.70575 5.88449 5.11032 5.33482 5.35028 4.88839C5.59023 4.43638 5.71021 4.01786 5.71021 3.63281C5.71021 3.11942 5.5707 2.70089 5.29168 2.37723C5.01825 2.04799 4.62762 1.88337 4.11981 1.88337C3.55619 1.88337 3.12651 2.07589 2.83075 2.46094C2.54057 2.8404 2.39548 3.34821 2.39548 3.98438H0.0182466L0.00150549 3.93415C-0.0263963 2.83482 0.333537 1.90569 1.0813 1.14676C1.83465 0.382254 2.84749 0 4.11981 0C5.37539 0 6.36311 0.326451 7.08298 0.979353C7.80285 1.63225 8.16278 2.50279 8.16278 3.59096C8.16278 4.32757 7.9591 5.00837 7.55173 5.63337C7.14994 6.25837 6.4803 7.0731 5.5428 8.07757L3.37483 10.4464L3.39157 10.4883H6.55563L6.65608 9.28292H8.51434V12.3633H0.194028Z" transform="translate(0.845459 0.351074)" fill="white"/>
</svg>
