<svg width="9" height="14" viewBox="0 0 9 14" fill="none" xmlns="http://www.w3.org/2000/svg">
<path d="M2.71345 5.23159H4.08622C4.66657 5.23159 5.09626 5.08091 5.37528 4.77958C5.6543 4.47266 5.79381 4.04855 5.79381 3.50725C5.79381 3.01618 5.6543 2.62277 5.37528 2.32701C5.09626 2.03125 4.69169 1.88337 4.16155 1.88337C3.70396 1.88337 3.31892 2.0173 3.00642 2.28516C2.69392 2.55301 2.53767 2.90458 2.53767 3.33984H0.168806L0.152065 3.28962C0.118583 2.33538 0.484096 1.54855 1.2486 0.929129C2.01311 0.30971 2.96177 0 4.09459 0C5.35575 0 6.36021 0.301339 7.10798 0.904018C7.86133 1.5067 8.238 2.36607 8.238 3.48214C8.238 4.01228 8.07059 4.5173 7.73577 4.99721C7.40095 5.47154 6.94057 5.84263 6.35463 6.11049C7.02986 6.35045 7.54325 6.71875 7.89481 7.2154C8.25195 7.71205 8.43052 8.28962 8.43052 8.9481C8.43052 10.0642 8.02316 10.9431 7.20843 11.5848C6.39927 12.221 5.36133 12.5391 4.09459 12.5391C2.96177 12.5391 1.988 12.2405 1.17327 11.6434C0.364118 11.0407 -0.0265067 10.1925 0.00139509 9.09877L0.0181362 9.04855H2.387C2.387 9.5173 2.55441 9.90513 2.88923 10.2121C3.22405 10.5134 3.64816 10.6641 4.16155 10.6641C4.72517 10.6641 5.16881 10.5078 5.49247 10.1953C5.82171 9.88281 5.98633 9.4587 5.98633 8.92299C5.98633 8.28125 5.8245 7.8125 5.50084 7.51674C5.18276 7.2154 4.71122 7.06473 4.08622 7.06473H2.71345V5.23159Z" transform="translate(0.332764 0.922363)" fill="white"/>
</svg>
