<svg width="16" height="22" fill="none" xmlns="http://www.w3.org/2000/svg"><path d="M1.07 22v-2.798l6.899-7.397c.996-1.143 1.704-2.105 2.124-2.886.42-.791.63-1.524.63-2.197 0-.899-.245-1.631-.733-2.198-.478-.576-1.162-.864-2.05-.864-.987 0-1.739.337-2.256 1.01-.508.665-.762 1.554-.762 2.667H.762l-.03-.088c-.048-1.924.581-3.55 1.89-4.878C3.94 1.033 5.712.364 7.94.364c2.198 0 3.926.572 5.186 1.714 1.26 1.143 1.89 2.666 1.89 4.57a6.42 6.42 0 0 1-1.07 3.575c-.703 1.093-1.875 2.52-3.515 4.277l-3.794 4.145.029.074h5.537l.176-2.11h3.252V22H1.07z" fill="#fff"/></svg>