<svg width="10" height="13" fill="none" xmlns="http://www.w3.org/2000/svg"><path d="M1.04 12.714v-1.598l3.942-4.228c.57-.652.974-1.202 1.214-1.649.24-.452.36-.87.36-1.255 0-.514-.14-.932-.419-1.256-.273-.329-.664-.494-1.172-.494-.563 0-.993.193-1.289.578-.29.38-.435.887-.435 1.523H.864l-.017-.05c-.028-1.1.332-2.028 1.08-2.787C2.68.733 3.693.35 4.965.35c1.256 0 2.244.327 2.963.98.72.652 1.08 1.523 1.08 2.611 0 .737-.203 1.417-.61 2.042-.403.625-1.072 1.44-2.01 2.445L4.22 10.797l.017.042h3.164l.1-1.205H9.36v3.08H1.04z" fill="#fff"/></svg>