<svg width="320" height="161" fill="none" xmlns="http://www.w3.org/2000/svg"><path d="M-1078 99.17s121.083-30.255 158.321-35.507c154.941-21.853 333.758 50.075 532.025 22.975 1.485-.203 2.908-.39 4.396-.563 23.01-2.688 223.549-25.982 293.783-29.589C20.58 50.834 91.37 39.284 189.68 86.328c61.05 29.21 143.35 25.786 196.97 18.993 36.12-4.576 69.48-23.489 104.35-33.981 28.14-8.469 69.93-15.184 129.45-12.184C755.83 65.982 818.36 71.43 828.56 69.16c12.06-2.683 23.45-4.49 34.19-5.631 93.32-9.909 217.92 3.18 309.57 23.373L1228 99.171" stroke="#fff" stroke-width="100"/></svg>