<svg width="143" height="138" fill="none" xmlns="http://www.w3.org/2000/svg"><path d="M26.297 127.313c-6.608-11.704-2.113-30.058 11.558-43.787 15.527-15.589 36.993-19.304 47.952-8.3a.42.42 0 0 0 .042.044c-2.193 6.409-9.18 20.042-30.117 27.414-19.182 6.755-26.58 17.499-29.435 24.629zm53.057-34.106c-5.007 5.032-12.124 9.971-22.206 13.523-20.46 7.204-26.177 19-27.772 24.712.077.078.14.159.212.231 10.959 11.004 32.428 7.288 47.95-8.3 13.814-13.871 18.257-32.46 11.351-44.144-1.662 3.891-4.553 8.975-9.534 13.978zm-42.34-50.698c22.104 1.945 34.062-7.59 38.688-12.52-.008-.02-.014-.042-.02-.06-5.47-14.559-26.556-20.053-47.096-12.27C10.496 24.511-1.132 39.375.087 52.773 5.615 47.46 16.764 40.73 37.015 42.509zm11.383 27.875c18.279-6.924 29.95-22.026 28.452-35.53-3.11 2.86-7.831 6.297-14.422 8.795-6.627 2.51-15.14 4.069-25.782 3.133C15.048 44.88 4.996 53.265 1.197 57.813c.039.101.066.2.1.296 5.472 14.563 26.559 20.059 47.1 12.275zm63.969-30.36C125.627 22.156 123.828 6.93 122.079.386c-.02-.002-.04-.01-.059-.014C106.808-2.6 91.075 12.531 86.879 34.168c-3.695 19.062 2.795 36.801 14.787 42.799-1.599-7.515-1.443-20.575 10.7-36.944zm14.44-38.06c.789 4.161 1.222 10-.124 16.942-1.353 6.983-4.507 15.074-10.888 23.677-12.957 17.456-11.133 30.446-9.274 36.08.106.023.205.05.303.072 15.214 2.974 30.945-12.156 35.141-33.795 3.736-19.256-2.93-37.166-15.158-42.977z" fill="#F5F5F5"/></svg>