<svg width="18" height="10" fill="#57AB27" xmlns="http://www.w3.org/2000/svg"><path d="M17.683 9.031a1.199 1.199 0 0 0-.06-.114c-.308-.548-.898-1.22-1.768-2.017l-.018-.018-.01-.01-.009-.008h-.009c-.395-.371-.645-.62-.75-.749-.191-.243-.234-.49-.13-.739.075-.189.352-.587.834-1.195.253-.323.453-.581.601-.776 1.068-1.4 1.53-2.293 1.389-2.683l-.055-.09C17.66.575 17.565.525 17.41.48a1.477 1.477 0 0 0-.593-.023l-2.665.018a.35.35 0 0 0-.186.005l-.12.027L13.8.53l-.037.027a.41.41 0 0 0-.102.096.625.625 0 0 0-.092.16c-.29.736-.62 1.42-.99 2.053a19.45 19.45 0 0 1-.63.981c-.192.277-.352.48-.482.611s-.246.236-.351.315c-.105.08-.186.113-.241.1a6.866 6.866 0 0 1-.157-.036.61.61 0 0 1-.209-.224.99.99 0 0 1-.106-.356 3.84 3.84 0 0 1-.033-.37 7.651 7.651 0 0 1 .005-.437c.007-.189.01-.317.01-.383 0-.232.004-.483.013-.753l.023-.644c.007-.158.01-.325.01-.502 0-.176-.011-.314-.033-.415a1.404 1.404 0 0 0-.097-.292.493.493 0 0 0-.19-.219 1.078 1.078 0 0 0-.31-.123A6.347 6.347 0 0 0 8.552 0c-1.146-.01-1.883.062-2.21.221-.13.066-.247.158-.352.273-.111.134-.127.207-.047.219.37.055.633.186.787.392l.056.11c.043.08.086.22.13.42.043.2.07.423.083.666.03.444.03.824 0 1.14a13.4 13.4 0 0 1-.088.74 1.464 1.464 0 0 1-.236.63.158.158 0 0 1-.047.045.702.702 0 0 1-.25.046c-.086 0-.19-.043-.314-.128a2.209 2.209 0 0 1-.384-.351 4.7 4.7 0 0 1-.45-.626 10.86 10.86 0 0 1-.518-.949l-.148-.264c-.092-.17-.219-.419-.38-.744-.16-.326-.302-.64-.425-.945a.603.603 0 0 0-.222-.292L3.49.576a.636.636 0 0 0-.148-.078.993.993 0 0 0-.213-.059L.593.457c-.26 0-.436.058-.528.174L.028.685A.292.292 0 0 0 0 .832c0 .066.019.149.056.246.37.858.772 1.685 1.207 2.482a27.58 27.58 0 0 0 1.134 1.925c.321.487.648.947.981 1.378.334.432.554.71.662.83.108.123.193.214.255.275l.231.219c.148.146.366.32.653.524.287.204.605.405.953.603.349.197.755.359 1.217.483a4.24 4.24 0 0 0 1.352.15h1.064c.216-.017.38-.084.49-.2l.038-.046a.6.6 0 0 0 .07-.168.917.917 0 0 0 .032-.251 2.97 2.97 0 0 1 .06-.707 1.84 1.84 0 0 1 .157-.475 1.166 1.166 0 0 1 .357-.401.608.608 0 0 1 .073-.032c.149-.049.323-.002.524.141.2.143.388.32.564.53.176.21.387.445.634.707.247.261.463.456.648.584l.185.11c.124.072.284.14.482.2.197.061.37.076.518.046l2.37-.037c.234 0 .416-.038.545-.114.13-.076.207-.16.232-.25a.697.697 0 0 0 .005-.311 1.137 1.137 0 0 0-.066-.242z"/></svg>