<svg width="109" height="40" fill="none" xmlns="http://www.w3.org/2000/svg"><path d="M90.853 16.172h-2.315l.023-9.681h2.292v9.681zM46.366 40H31.374v-8.576H25.69v-7.982h2.338v5.617h5.685v8.577h10.316V6.49h16.329V0h7.847v26.278h14.747v-2.836h2.339v5.2H65.858V2.364h-3.163v6.498H46.366V40z" fill="#1EE62C"/><path d="M0 14.185h2.315v3.646l.535-.965 2.04-2.681h2.698L4.164 18.41l3.515 5.022H4.997l-2.43-3.446-.26.278v3.168H0v-9.248zm15.366 6.992h-2.911l-.696 2.256H9.276l3.125-9.333h3.034l3.156 9.34h-2.499l-.726-2.263zm-1.49-5.393l-.237 1.298-.573 1.993h1.689l-.55-1.993-.237-1.298h-.092zm11.813.456h-2.514v7.2h-2.353v-9.255h7.197v9.248h-2.338V16.24h.008zm11.851.155l-.703 1.993-2.353 5.053h-3.286v-9.256h2.315v4.968l-.328 2.272.069.023.825-2.21 2.43-5.06h3.087v9.248h-2.338v-4.992l.382-2.024-.1-.015zm10.943-2.21v2.032H46.35v7.216h-2.338v-7.216H41.91v-2.032h6.572zm6.922 6.992h-2.91l-.696 2.256h-2.484l3.126-9.333h3.033l3.164 9.34h-2.5l-.733-2.263zm-1.49-5.393l-.237 1.298-.573 1.993h1.69l-.551-1.993-.237-1.298h-.092zm8.131-1.599h6.15v9.248h-2.338v-7.24h-1.62l-.13 2.882c-.022 1.584-.42 3.887-2.941 4.536l-.887-1.584c1.437-.742 1.399-1.545 1.513-2.998l.253-4.844zm18.224 4.644c0 2.905-2.155 4.783-4.73 4.783-2.59 0-4.745-1.862-4.745-4.783 0-2.905 2.154-4.798 4.745-4.798 2.575 0 4.73 1.931 4.73 4.798zm-4.73 2.65c1.177 0 2.376-.664 2.376-2.658 0-1.916-1.215-2.665-2.391-2.665-1.238 0-2.377.888-2.377 2.665 0 1.8 1.215 2.658 2.392 2.658zm13.02-5.309h-3.278v7.27H82.96v-9.255h5.609v1.985h-.008zm8.627.225l-.703 1.993-2.353 5.046h-3.279v-9.25h2.316v4.97l-.329 2.27.069.024.825-2.21 2.43-5.06h3.087v9.248h-2.338v-4.992l.382-2.024-.107-.015zm6.793 3.446c-1.414-.355-1.88-1.506-1.896-2.572-.023-1.615 1.307-3.076 3.515-3.076h3.4v9.249h-2.322v-3.23h-.497l-1.872 3.222h-2.537l2.208-3.593zm2.681-1.53v-2.124h-1.07c-.786 0-1.16.54-1.16 1.074 0 .525.381 1.058 1.122 1.058h1.108v-.007z" fill="#000"/></svg>