<svg width="16" height="23" fill="none" xmlns="http://www.w3.org/2000/svg"><path d="M5.581 9.52h2.402c1.016 0 1.768-.264 2.256-.791.488-.538.733-1.28.733-2.227 0-.86-.245-1.548-.733-2.065-.488-.518-1.196-.777-2.124-.777-.8 0-1.474.235-2.021.703-.547.469-.82 1.084-.82 1.846H1.127l-.03-.088c-.058-1.67.582-3.047 1.92-4.13C4.355.905 6.016.363 7.998.363c2.207 0 3.965.528 5.273 1.582C14.59 3 15.249 4.504 15.249 6.457c0 .928-.293 1.812-.879 2.651-.586.83-1.391 1.48-2.417 1.949 1.182.42 2.08 1.064 2.695 1.933.625.87.938 1.88.938 3.032 0 1.954-.713 3.492-2.139 4.615-1.416 1.113-3.232 1.67-5.449 1.67-1.982 0-3.686-.523-5.112-1.568C1.47 19.685.786 18.2.835 16.286l.03-.088H5.01c0 .82.293 1.5.879 2.036.586.528 1.328.791 2.226.791.987 0 1.763-.273 2.33-.82.575-.547.864-1.289.864-2.226 0-1.124-.284-1.944-.85-2.461-.557-.528-1.382-.792-2.476-.792H5.581V9.52z" fill="#fff"/></svg>