<svg width="768" height="144" fill="none" xmlns="http://www.w3.org/2000/svg"><path d="M-426 85.291s83.487-21.538 109.163-25.276C-210.203 44.487-87.168 95.47 49.235 76.476a245.94 245.94 0 0 1 4.529-.596c18.972-2.285 154.079-18.443 201.83-20.975 75.886-4.023 124.693-12.245 192.482 21.243C483.788 93.791 530.048 94.71 565.83 91.63c36.85-3.172 71.11-23.208 107.36-30.554 18.09-3.665 41.68-5.843 71.9-4.27 93.35 4.859 136.46 8.737 143.5 7.121 76.5-17.57 183.9.547 260.44 17.958l14.97 3.406" stroke="#fff" stroke-width="100"/></svg>